<?xml version="1.0" encoding="utf-8"?>
<!-- Generator: Adobe Illustrator 16.0.0, SVG Export Plug-In . SVG Version: 6.00 Build 0)  -->
<!DOCTYPE svg PUBLIC "-//W3C//DTD SVG 1.1//EN" "http://www.w3.org/Graphics/SVG/1.1/DTD/svg11.dtd" [
	<!ENTITY ns_flows "http://ns.adobe.com/Flows/1.0/">
	<!ENTITY ns_extend "http://ns.adobe.com/Extensibility/1.0/">
	<!ENTITY ns_ai "http://ns.adobe.com/AdobeIllustrator/10.0/">
	<!ENTITY ns_graphs "http://ns.adobe.com/Graphs/1.0/">
]>
<svg version="1.1" id="Capa_1" xmlns:x="&ns_extend;" xmlns:i="&ns_ai;" xmlns:graph="&ns_graphs;"
	 xmlns="http://www.w3.org/2000/svg" xmlns:xlink="http://www.w3.org/1999/xlink" xmlns:a="http://ns.adobe.com/AdobeSVGViewerExtensions/3.0/"
	 x="0px" y="0px" width="411.2px" height="321.3px" viewBox="0 0 411.2 321.3" enable-background="new 0 0 411.2 321.3"
	 xml:space="preserve">
<g>
	<rect fill="#FF0000" width="411.2" height="321.3"/>
	<path fill-rule="evenodd" clip-rule="evenodd" fill="#FFFFFF" d="M156.3,187.1l-43.6-77.1c26.8,5.4,47,29.1,47,57.5
		C159.7,174.4,158.5,181,156.3,187.1L156.3,187.1z M60.6,209.8h81.1c-10.5,10.1-24.8,16.4-40.6,16.4C85.4,226.2,71.1,220,60.6,209.8
		L60.6,209.8z M89.1,110.2l-43.2,76.7c-2.1-6-3.3-12.6-3.3-19.3C42.6,139.3,62.5,115.7,89.1,110.2L89.1,110.2z M100.9,95.1
		l-63,111.8l126.3,0L100.9,95.1L100.9,95.1z M134.5,170.9c-2.1,0-3.8,1.7-3.8,3.8c0,2.1,1.7,3.8,3.8,3.8s3.8-1.7,3.8-3.8
		C138.3,172.6,136.6,170.9,134.5,170.9L134.5,170.9z M133.7,174.3h0.6c0.5,0,0.8,0,0.9-0.1c0.1-0.1,0.2-0.2,0.2-0.5
		c0-0.2-0.1-0.3-0.2-0.4c-0.1-0.1-0.4-0.1-0.9-0.1h-0.6V174.3L133.7,174.3z M135.6,176.8h0.9c-0.1-0.1-0.1-0.3-0.2-0.6l0-0.1
		l-0.1-0.6c-0.1-0.3-0.1-0.6-0.2-0.7c-0.1-0.1-0.3-0.2-0.5-0.2c0.3-0.1,0.5-0.2,0.7-0.3c0.2-0.2,0.2-0.4,0.2-0.7
		c0-0.2,0-0.4-0.1-0.5c-0.1-0.2-0.2-0.3-0.3-0.4c-0.1-0.1-0.3-0.1-0.4-0.2c-0.2,0-0.4-0.1-0.8-0.1h-1.8v4.3h0.9V175h0.6
		c0.3,0,0.5,0,0.7,0.1c0.1,0.1,0.2,0.2,0.2,0.4l0.1,0.7c0,0.2,0.1,0.3,0.1,0.4C135.5,176.7,135.5,176.7,135.6,176.8L135.6,176.8z
		 M134.5,171.4c-1.8,0-3.3,1.5-3.3,3.3c0,1.9,1.5,3.4,3.3,3.4s3.3-1.5,3.3-3.4C137.8,172.9,136.3,171.4,134.5,171.4L134.5,171.4z
		 M98.6,116c-0.3,5.9-1.1,12.1-3.2,17.5c-0.6-1.6-1.7-3-2.2-3.1c-1,4.8-4.1,6.7-5.9,10.2l-2.2-2.6c-0.2,3.8-3.3,6.2-4.2,11.4
		c-0.8-0.3-0.9-1.7-1.9-2.4c-0.7,3.7-3.7,7.3-4.4,10.6l-2.7-1.9c0.3,8.3-1.9,16.6,2.1,24.9H62.2v17.1h76.6v-17.1H127
		c5.6-17.9,0.5-17.7,0.4-27.3c-1.1,1.1-1.8,2.9-3.4,3.4c-0.9-7.5-2.1-10.8-3.6-12.8c-0.6,1-1.6,2-2.4,2.6c-0.3-4.8-1.1-8.6-2.4-11.6
		c-0.5,2.1-1.2,3.9-2.2,5.1c-1-6.5-4.6-9-5.4-13.4c-1.5,1.9-2.3,2.7-3.2,3.2C104.4,122.9,101.5,119,98.6,116L98.6,116z M153,131.4
		c11.8,17.7,14.9,39.7,6.5,60.8l8.3,14.6l205.4,0l0-75.4H153L153,131.4z M195.9,170v12.2c0,0.6,0.1,1.1,0.3,1.5h-8.4
		c0.2-0.3,0.2-0.8,0.3-1.5v-27.5c0-0.6-0.1-1.1-0.3-1.5h12.6c2.5,0,4.6,0.6,6.3,1.7c2.3,1.6,3.4,3.8,3.4,6.7c0,2-0.6,3.6-1.7,5
		c-0.9,1.1-2.6,2-5,2.8l8.2,12.9c0.4,0.6,0.8,1.1,1.1,1.4h-9.5c-0.1-0.5-0.2-1-0.5-1.4L195.9,170L195.9,170z M195.9,167.6v-11.2h1.6
		c1.4,0,2.5,0.5,3.4,1.5c0.8,1,1.3,2.4,1.3,4.2c0,1.9-0.6,3.4-1.7,4.5c-0.7,0.7-1.7,1-2.9,1H195.9L195.9,167.6z M215.1,153.2h18.2
		v3.4c-0.5-0.1-1-0.2-1.6-0.2h-8.5v10.2h8.4c0.7,0,1.3-0.1,1.7-0.2v3.5c-0.4-0.1-1-0.2-1.7-0.2h-8.4v10.4h8.3c0.7,0,1.3-0.1,1.8-0.2
		v3.7h-18.2c0.2-0.4,0.3-0.9,0.3-1.5v-27.5C215.3,154.1,215.2,153.6,215.1,153.2L215.1,153.2z M261.7,154.2v5.3
		c-1.5-1.2-2.8-2-4-2.5c-1.1-0.5-2.3-0.7-3.7-0.7c-2.8,0-5,1.1-6.6,3.3c-1.6,2.2-2.4,5.1-2.4,8.8c0,3.9,0.9,7,2.6,9.2
		c1.7,2,3.8,3,6.5,3c1.3,0,2.5-0.2,3.6-0.7c1.1-0.5,2.4-1.3,3.9-2.5v5.1c-1.6,0.7-3.1,1.1-4.4,1.4c-1.3,0.3-2.8,0.4-4.5,0.4
		c-5.2,0-9.1-1.3-11.8-4c-2.7-2.8-4.1-6.8-4.1-12c0-3.5,0.6-6.2,1.8-8.3c2.7-4.8,7.7-7.2,14.9-7.2
		C256.4,152.8,259.1,153.2,261.7,154.2L261.7,154.2z M279.9,152.8c4.6,0,8.3,1.1,11.2,3.4c3.3,2.7,5,6.8,5,12.3
		c0,5.3-1.5,9.3-4.5,12c-2.8,2.5-6.8,3.8-11.8,3.8c-3.5,0-6.4-0.6-8.5-1.7c-2.8-1.4-4.8-3.6-6-6.5c-0.9-2.2-1.4-4.8-1.4-7.9
		c0-3.4,0.7-6.3,2.1-8.7C268.5,155.1,273.2,152.8,279.9,152.8L279.9,152.8z M279.9,156.1c2.7,0.1,4.7,1.1,6,3.3
		c1.2,2.1,1.8,5.2,1.8,9.3c0,4.1-0.7,7.1-2,9.2c-1.3,2.1-3.3,3.1-5.9,3.1c-2.8,0-4.9-1.1-6.1-3.4c-0.6-1.1-1.1-2.4-1.4-3.8
		c-0.3-1.4-0.4-3.2-0.4-5.4C272.1,160.1,274.7,156.1,279.9,156.1L279.9,156.1z M308.6,170v12.2c0,0.6,0.1,1.1,0.3,1.5h-8.4
		c0.1-0.3,0.2-0.8,0.3-1.5v-27.5c0-0.6-0.1-1.1-0.3-1.5h12.6c2.5,0,4.6,0.6,6.3,1.7c2.3,1.6,3.4,3.8,3.4,6.7c0,2-0.6,3.6-1.7,5
		c-0.9,1.1-2.6,2-5,2.8l8.2,12.9c0.4,0.6,0.8,1.1,1.1,1.4h-9.5c-0.1-0.5-0.2-1-0.5-1.4L308.6,170L308.6,170z M308.6,167.6v-11.2h1.6
		c1.4,0,2.5,0.5,3.4,1.5c0.8,1,1.3,2.4,1.3,4.2c0,1.9-0.6,3.4-1.7,4.5c-0.7,0.7-1.7,1-2.9,1H308.6L308.6,167.6z M327.8,153.2h11.4
		c4.2,0,7.7,0.9,10.3,2.7c2.1,1.4,3.6,3.2,4.6,5.5c0.9,2.1,1.3,4.4,1.3,6.8c0,3.8-0.9,7-2.7,9.6c-1.3,1.9-2.9,3.4-4.9,4.4
		c-2,1-4.1,1.5-6.5,1.5h-13.5c0.2-0.4,0.2-0.9,0.2-1.5v-27.5C328,154.1,328,153.6,327.8,153.2L327.8,153.2z M335.9,180.2v-23.3h2.3
		c2.2,0,4.1,0.7,5.5,2c2.3,2.1,3.5,5.3,3.5,9.5c0,4.1-0.9,7.2-2.8,9.4c-1.4,1.6-3.3,2.4-5.7,2.4H335.9L335.9,180.2z M100.1,122
		c-0.8,5.9-1.9,11-5.8,14.8l-0.5-2.2c-3.8,4.2-5.9,8.4-5.6,12.6c-1.7-1.1-1.8-3.2-2.2-4.8c-3.4,4.1-4.3,8.3-4.1,12.4
		c-0.7-1.3-1.4-1.6-2.4-3.5c-2.8,3.5-2.4,7.6-4.1,10.1c-0.7,0.1-1.4-0.3-2-1.1c-1.4,6.9-0.7,13.4,2.5,20.3h3
		c-2.4-5.1-3.3-10.8-2.8-17.1c0.5,1.2,1.4,1.9,2.2,1.5c0.9-2.7-0.2-5.8,0.9-8.5c0.3,1.3,1.9,0.6,2.9,3.2c0.3-4.2,3.1-7.4,3.4-11
		c1.6,0.6,2.8,2.4,3.9,4.4c0.5-4.2,2.9-7.1,3.4-10.7c1.8,1.5,2.3,3.8,3.7,4.4c0.4-6.4,1.9-10.8,4.6-13.1c0,4.1,1.1,7.9,3.4,11.6
		c1.2-1.1,1.9-3.5,2.2-7.3c2.8,2.7,4.4,6.7,4.6,12.1c1-0.3,1.9-1.4,2.9-3.1c0,5.2,2.9,7.2,3.5,11.1c0.7-0.8,1-2,1.2-3.4
		c0.5,4.2,2.9,7.4,3.6,11.1c1.1-0.1,1.2-1.1,1.4-1.7c1.3,5.4,1.3,10.8-1.6,16.6h2.8c3.7-8.6,3.6-15.7,0.8-21.7l-1.9,1.4
		c-1.6-1.9-1.7-8.8-3.9-12.8c-0.7,1.6-1.6,3-2.7,4.1c-2.3-3.4-0.6-7.4-1.7-11.1c-1,2.1-2,3.8-3,5.1c-0.8-7.6-2.3-12.7-5.4-15.3
		c-0.5,1.9-1.8,2.7-2.1,3.4C102.3,132.3,103.8,123.5,100.1,122L100.1,122z M69.3,188.6H71c1.3,0,2.1-0.1,2.5-0.3
		c0.4-0.2,0.6-0.6,0.6-1.2c0-0.6-0.2-1-0.6-1.2c-0.4-0.2-1.2-0.3-2.5-0.3h-1.8V188.6L69.3,188.6z M74.2,195.3h2.5
		c-0.2-0.3-0.3-0.8-0.5-1.6c0-0.1,0-0.1,0-0.2l-0.3-1.5c-0.2-1-0.4-1.6-0.7-1.9c-0.3-0.3-0.7-0.4-1.3-0.5c0.8-0.2,1.5-0.5,1.9-1
		c0.4-0.5,0.6-1.1,0.6-1.9c0-0.5-0.1-1-0.3-1.5c-0.2-0.4-0.5-0.8-0.8-1c-0.3-0.2-0.7-0.4-1.2-0.5c-0.5-0.1-1.2-0.1-2.2-0.1h-5v11.6
		h2.3v-4.9h1.8c0.9,0,1.5,0.1,1.8,0.3c0.3,0.2,0.5,0.6,0.6,1.2l0.3,1.9c0.1,0.4,0.2,0.8,0.2,1C74.1,195,74.1,195.2,74.2,195.3
		L74.2,195.3z M78.9,195.2h8.3v-1.8h-6.1V190h5.4v-1.8h-5.4v-2.9H87v-1.8h-8.1V195.2L78.9,195.2z M96.6,187.2h2.3
		c0-1.2-0.4-2.1-1.2-2.7c-0.8-0.6-1.8-0.9-3.2-0.9c-1.9,0-3.3,0.5-4.4,1.6c-1,1-1.5,2.5-1.5,4.4c0,1.9,0.5,3.3,1.5,4.4
		c1,1,2.3,1.6,4.1,1.6c1.5,0,2.7-0.3,3.6-1c0.9-0.7,1.3-1.6,1.3-2.8v-0.2h-2.3v0.1c0,0.6-0.2,1.1-0.6,1.4c-0.4,0.4-1,0.5-1.7,0.5
		c-1.1,0-1.9-0.4-2.5-1.1c-0.6-0.7-0.9-1.8-0.9-3.1c0-1.2,0.3-2.2,0.9-3c0.6-0.7,1.4-1.1,2.4-1.1c0.7,0,1.3,0.1,1.7,0.4
		C96.4,186.2,96.6,186.6,96.6,187.2L96.6,187.2z M127.2,193.5h2.1c0.8,0,1.4-0.1,1.8-0.2c0.4-0.1,0.8-0.3,1.1-0.6
		c0.3-0.3,0.6-0.8,0.8-1.3c0.2-0.5,0.2-1.1,0.2-1.8c0-1.4-0.3-2.4-0.9-3c-0.6-0.6-1.5-1-2.8-1h-2.3V193.5L127.2,193.5z M125,195.3
		h4.6c1.1,0,2-0.1,2.7-0.4c0.7-0.3,1.3-0.7,1.8-1.3c0.4-0.5,0.8-1.1,1-1.8c0.2-0.7,0.3-1.5,0.3-2.3c0-0.8-0.1-1.6-0.4-2.3
		c-0.2-0.7-0.6-1.3-1.1-1.9c-0.5-0.6-1.1-1-1.8-1.2c-0.7-0.3-1.7-0.4-2.9-0.4H125V195.3L125,195.3z M87.9,165
		c-0.5,0-0.9,0.4-0.9,0.9v0.8l-3.5-1.7l-0.6,0.9l4.1,2.5v11.6c0,0.3,0.2,0.6,0.4,0.8h0.6V165H87.9L87.9,165z M85.2,163.8v0.8h30.8
		v-0.8H85.2L85.2,163.8z M91.6,162.5l18.2-0.1l2.4,1.1H89.2L91.6,162.5L91.6,162.5z M94,161.2l13.4-0.1l2.3,1.1H91.7L94,161.2
		L94,161.2z M98.5,159.2l-0.7,1.6H96l0-0.7h1.2l0.4-0.9l0.4-1l5.2,0l0.4,1.1l0.4,0.9h1.2v0.7h-1.8l-0.7-1.6H98.5L98.5,159.2
		L98.5,159.2z M93.2,165h12.9c0.7,0,1.3,0.6,1.3,1.2v13.4c0,0.5-0.3,0.9-0.8,1.1H92.3c-0.5-0.2-0.8-0.6-0.8-1.1v-13.4
		C91.5,165.5,92.3,165,93.2,165L93.2,165z M107,180.7c0.4-0.2,0.7-0.6,0.7-1.1v-13.4c0-0.7-0.6-1.2-1.3-1.2h2.5v15.7H107L107,180.7z
		 M111,165.1c0.5,0.2,0.9,0.6,0.9,1.1v13.4c0,0.5-0.3,0.9-0.8,1.1H111V165.1L111,165.1z M114,166.6v-0.8c0-0.5-0.4-0.9-0.9-0.9h-2.5
		c0.9,0,1.7,0.6,1.7,1.2v13.4c0,0.5-0.3,0.9-0.8,1.1h2.1c0.3-0.2,0.4-0.4,0.4-0.8v-11.6l4-2.5l-0.6-0.9L114,166.6L114,166.6z
		 M89.6,165h3.1c-0.9,0-1.7,0.6-1.7,1.2v13.4c0,0.5,0.3,0.9,0.8,1.1h-2.3V165L89.6,165z M106,195.5c-0.9,0-1.6-0.1-2.3-0.4
		c-0.7-0.3-1.3-0.7-1.8-1.2c-0.6-0.6-1-1.2-1.3-2c-0.3-0.8-0.4-1.6-0.4-2.4c0-0.9,0.1-1.7,0.4-2.4c0.3-0.8,0.7-1.4,1.3-2
		c0.5-0.6,1.1-0.9,1.8-1.2c0.7-0.3,1.5-0.4,2.3-0.4c0.9,0,1.7,0.1,2.4,0.4c0.7,0.3,1.3,0.7,1.8,1.2c0.6,0.6,1,1.2,1.3,2
		c0.3,0.8,0.4,1.6,0.4,2.4c0,0.8-0.1,1.7-0.4,2.4c-0.3,0.8-0.7,1.4-1.3,2c-0.5,0.5-1.2,0.9-1.8,1.2
		C107.6,195.4,106.9,195.5,106,195.5L106,195.5z M109.5,189.5c0,1.2-0.3,2.2-1,2.9c-0.7,0.8-1.5,1.1-2.5,1.1c-1,0-1.9-0.4-2.5-1.1
		c-0.6-0.7-1-1.7-1-2.9c0-1.2,0.3-2.2,1-2.9c0.7-0.7,1.5-1.1,2.5-1.1c1,0,1.9,0.4,2.5,1.1C109.1,187.4,109.5,188.3,109.5,189.5
		L109.5,189.5z M116.2,188.5h1.7c1.2,0,2-0.1,2.4-0.3c0.4-0.2,0.6-0.6,0.6-1.2c0-0.6-0.2-1-0.5-1.2c-0.3-0.2-1.2-0.3-2.4-0.3h-1.7
		V188.5L116.2,188.5z M121,195.2h2.5c-0.2-0.3-0.3-0.8-0.5-1.6c0-0.1,0-0.1,0-0.2l-0.3-1.5c-0.2-1-0.4-1.6-0.7-1.9
		c-0.3-0.3-0.7-0.4-1.3-0.5c0.8-0.2,1.4-0.5,1.8-1c0.4-0.4,0.6-1.1,0.6-1.9c0-0.5-0.1-1-0.3-1.4c-0.2-0.4-0.5-0.8-0.8-1
		c-0.3-0.2-0.7-0.4-1.2-0.5c-0.5-0.1-1.1-0.1-2.1-0.1h-4.9v11.6h2.3v-4.9h1.7c0.9,0,1.4,0.1,1.7,0.3c0.3,0.2,0.5,0.6,0.6,1.2
		l0.3,1.9c0.1,0.4,0.2,0.8,0.2,1C120.8,194.9,120.9,195.1,121,195.2L121,195.2z M233.7,121.9c0,1.1,0.5,1.9,1.3,1.9
		c0.5,0,1.3-0.4,1.8-1.4c0.5-0.8,0.6-1.8,1.3-4.8h0.1c-0.4-0.1-0.7-0.2-1.2-0.2C234.3,117.4,233.7,121,233.7,121.9L233.7,121.9
		L233.7,121.9z M239.1,121.2c0,0.1,0,0.3-0.1,0.4c-0.1,0.8-0.3,1.8-0.3,2.4c0,0.4-0.4,0.8-0.9,0.8c-0.5,0-1-0.3-1-0.8
		c0-0.1,0.1-0.6,0.2-1.1c-0.6,0.9-1.5,2.1-2.8,2.1c-1.4,0-2.6-0.9-2.6-2.6c0-0.4,0.2-2.6,1.7-4.2c0.9-1,2.3-1.7,3.8-1.7
		c0.5,0,0.8,0.1,1.1,0.1c0.2-0.8,0.2-1.2,0.2-1.5c0-0.4,0.2-0.8,0.7-0.8c0.1,0,0.2,0,0.3,0c0.5-0.1,1.1,0.2,1,0.5
		c-0.1,0.3-0.1,0.6-0.2,1.2c-0.1,0.2-0.1,0.5-0.2,0.8L239.1,121.2L239.1,121.2z M243.8,118.1c-0.6,0.7-1,2.2-1.1,3.1
		c1-0.1,2.1-0.7,2.9-1.4c0.4-0.4,0.7-0.9,0.7-1.5c0-0.7-0.5-1-0.9-1C245.1,117.3,244.5,117.4,243.8,118.1L243.8,118.1L243.8,118.1z
		 M244.4,124c0.6,0,1.1-0.2,1.5-0.3c0.3-0.1,0.7,0.1,0.6,0.3c-0.1,0.3-0.4,0.7-0.9,0.8c-0.4,0.1-0.9,0.1-1.6,0.1
		c-2.7-0.1-3.4-1.5-3.4-3.4c0-1.6,0.9-3,1.4-3.6c1.1-1.3,2.6-1.7,3.7-1.7c1.6,0,2.5,0.8,2.5,1.8c0,0.4-0.2,1-0.5,1.5
		c-0.4,0.6-1.1,1-1.6,1.2c-1.1,0.5-2.2,0.5-3.4,0.6c0,0,0,0.3,0,0.6C242.6,122.9,242.8,124.1,244.4,124L244.4,124z M250,121l1,0.5
		c0.4,0.2,0.9,0.5,0.9,1.1c0,0.6-0.6,1.3-1.8,1.3c-0.6,0-1-0.1-1.3-0.2c-0.4-0.2-0.9-0.1-1.1,0.3c-0.1,0.4,0.2,0.9,0.7,1
		c0.3,0.1,0.7,0.1,1.2,0.1c0.7,0,1.9-0.1,2.8-0.7c1-0.7,1.3-1.5,1.3-2.2c0-0.9-0.7-1.3-1.2-1.6l-0.8-0.5c-0.6-0.3-1.1-0.6-1.1-1.3
		c0-0.6,0.6-1.3,1.7-1.3c0.3,0,0.6,0.1,0.9,0.2c0.4,0.2,0.9,0.1,1.1-0.2c0.2-0.3-0.1-0.8-0.5-0.8h0c-0.3-0.1-0.6-0.1-1.1-0.1
		c-0.6,0-1.8,0.1-2.7,0.7c-0.8,0.6-1.3,1.3-1.3,2.2C248.6,120.2,249.5,120.7,250,121L250,121z M256.3,121.9c0,1.1,0.4,1.9,1.3,1.9
		c0.5,0,1.3-0.4,1.8-1.4c0.5-0.8,0.7-1.8,1.3-4.8h0.1c-0.4-0.1-0.7-0.2-1.1-0.2C256.9,117.4,256.3,121,256.3,121.9L256.3,121.9
		L256.3,121.9z M261.8,121.2c0,0.1,0,0.3-0.1,0.4c-0.2,0.8-0.3,1.8-0.3,2.4c0,0.4-0.4,0.8-0.9,0.8c-0.6,0-1-0.3-1-0.8
		c0-0.1,0.1-0.6,0.2-1.1c-0.6,0.9-1.5,2.1-2.8,2.1c-1.4,0-2.6-0.9-2.6-2.6c0-0.4,0.3-2.6,1.7-4.2c0.9-1,2.3-1.7,3.8-1.7
		c0.5,0,0.8,0.1,1.1,0.1c0.2-0.8,0.2-1.2,0.2-1.5c0-0.4,0.2-0.8,0.7-0.8c0.1,0,0.2,0,0.3,0c0.5-0.1,1,0.2,1,0.5
		c-0.1,0.3-0.1,0.6-0.2,1.2c-0.1,0.2-0.1,0.5-0.2,0.8L261.8,121.2L261.8,121.2z M266.4,118.1c-0.6,0.7-1,2.2-1.1,3.1
		c1-0.1,2.1-0.7,2.9-1.4c0.4-0.4,0.7-0.9,0.7-1.5c0-0.7-0.4-1-0.9-1C267.8,117.3,267.1,117.4,266.4,118.1L266.4,118.1L266.4,118.1z
		 M267,124c0.6,0,1.1-0.2,1.5-0.3c0.3-0.1,0.7,0.1,0.6,0.3c-0.1,0.3-0.4,0.7-0.9,0.8c-0.4,0.1-0.9,0.1-1.6,0.1
		c-2.7-0.1-3.4-1.5-3.4-3.4c0-1.6,0.9-3,1.4-3.6c1.1-1.3,2.6-1.7,3.7-1.7c1.6,0,2.5,0.8,2.5,1.8c0,0.4-0.2,1-0.6,1.5
		c-0.4,0.6-1.1,1-1.6,1.2c-1.1,0.5-2.2,0.5-3.4,0.6c0,0,0,0.3,0,0.6C265.2,122.9,265.5,124.1,267,124L267,124z M278,119.1
		c0.1-0.5,0.5-2.7,0.5-3.2c-0.6,0.2-0.9,0.3-1.5,0.6c-0.4,0.2-0.9,0-0.9-0.4c0-0.4,0.4-0.8,1-0.9c0.9-0.2,1.8-0.5,2.9-0.9
		c0.4-0.2,0.9,0.2,0.8,0.5c-0.2,0.8-0.4,1.8-0.8,3.5c-0.3,1.7-0.6,3.4-0.9,5.1c-0.1,0.2-0.1,0.4-0.1,0.6c-0.1,0.4-0.5,0.8-1.1,0.8
		h-0.3c-0.5,0-0.8-0.4-0.7-0.8c0.2-0.5,0.3-1.3,0.6-2.5L278,119.1L278,119.1z M284.9,115.8c-0.7,0.8-0.9,2-0.9,2.7
		c0,1.1,0.5,1.6,1.3,1.6c0.8,0,1.2-0.2,1.5-0.5c0.7-0.6,1.1-1.9,1.1-2.9c0-0.5-0.1-0.9-0.2-1.1c-0.4-0.4-0.9-0.5-1.2-0.5
		C285.9,115.1,285.4,115.2,284.9,115.8L284.9,115.8z M289.9,117.3c0,0.8-0.1,1.5-0.3,2.3c-0.2,0.9-0.6,2.5-1.9,3.8
		c-0.8,0.8-2.4,1.6-4.3,1.6c-0.7,0-1.3-0.1-1.7-0.2c-0.3-0.1-0.5-0.3-0.5-0.6c0-0.1,0-0.3,0.1-0.4c0.2-0.3,0.8-0.4,1.2-0.2
		c0.3,0.2,0.8,0.4,1.5,0.4c0.4,0,1.3,0,2.2-1.1c0.6-0.6,1-2.1,1.2-3c-0.2,0.4-0.5,0.8-0.8,1h0c-0.6,0.4-1.4,0.6-2.1,0.6
		c-1.2,0-2.8-0.6-2.8-2.6c0-1.9,1.2-4.8,4.8-4.8C287.9,114,289.9,114.2,289.9,117.3L289.9,117.3z M296.6,114.2
		c1.4,0.4,1.8,1.4,1.8,2c0,1.4-1.2,2.4-2.6,2.8c-0.3,0.1-0.5,0.2-0.8,0.2c0.3,0,0.6,0,0.8,0.1c1.4,0.2,2.2,0.8,2.2,1.8
		c0,2.5-2.3,3.9-5.3,3.9c-1,0-1.5-0.1-2-0.2c-0.4-0.1-0.7-0.5-0.6-0.9h0c0.1-0.4,0.7-0.5,1.1-0.3c0.3,0.2,0.8,0.3,1.4,0.3
		c2.6,0,3.3-1.6,3.3-2.5c0-0.7-0.2-1.6-2.6-1.6c-0.3,0-0.6,0-0.9,0.1c-0.4,0-0.7-0.2-0.7-0.5c0.1-0.3,0.5-0.6,1-0.6h0.2
		c2.1,0,3.3-1.1,3.3-2.3c0-0.7-0.5-1.3-1.7-1.3c-0.5,0-0.8,0.1-1.1,0.1c-0.3,0.1-0.5,0.1-0.7,0.2c-0.4,0.1-0.8,0-0.7-0.4
		c0.1-0.4,0.5-0.8,1-0.9c0.6-0.1,1.4-0.3,2.3-0.3C295.8,114,296.2,114.1,296.6,114.2L296.6,114.2z M305.6,115.8
		c-0.1,0.2-0.3,0.3-0.4,0.5c-1.3,1.4-3,3.4-4.1,4.8h3.4L305.6,115.8L305.6,115.8z M300,122.4c-0.4,0-0.8-0.3-0.7-0.6
		c0.1-0.4,0.3-0.8,0.6-1.2l0.1-0.1h0c0.4-0.5,2.3-2.8,2.7-3.3c0.2-0.2,0.6-0.7,1.1-1.3c0.3-0.3,0.6-0.7,0.9-1
		c0.4-0.4,1.1-0.6,1.7-0.6h0.4c0.5,0,0.9,0.4,0.8,0.8c0,0.1-0.1,0.2-0.1,0.3c-0.2,0.7-0.4,1.5-0.5,2.2c-0.2,1.1-0.5,2.5-0.7,3.6h0.5
		c0.4,0,0.8,0.3,0.8,0.6c-0.1,0.4-0.6,0.7-1.1,0.7h-0.5c-0.1,0.3-0.1,0.7-0.2,1c0,0.2-0.1,0.4-0.1,0.6c-0.1,0.5-0.6,0.8-1.2,0.8
		c-0.5,0-1-0.4-0.8-0.8c0.1-0.2,0.1-0.4,0.2-0.7c0.1-0.3,0.1-0.6,0.2-1H300z"/>
</g>
</svg>
